<svg xmlns="http://www.w3.org/2000/svg" xmlns:xlink="http://www.w3.org/1999/xlink" width="5000" zoomAndPan="magnify" viewBox="0 0 3750 3749.999967" height="5000" preserveAspectRatio="xMidYMid meet" version="1.0"><defs><clipPath id="a88958fe7f"><path d="M 770 117 L 3039 117 L 3039 3048 L 770 3048 Z M 770 117 " clip-rule="nonzero"/></clipPath><clipPath id="9918dc0247"><path d="M 43.4375 823.757812 L 2893.546875 93.191406 L 3647.761719 3035.566406 L 797.65625 3766.132812 Z M 43.4375 823.757812 " clip-rule="nonzero"/></clipPath><clipPath id="016ed8806a"><path d="M 43.4375 823.757812 L 2893.546875 93.191406 L 3647.761719 3035.566406 L 797.65625 3766.132812 Z M 43.4375 823.757812 " clip-rule="nonzero"/></clipPath><clipPath id="9509dbbe5c"><path d="M 43.4375 823.757812 L 2893.546875 93.191406 L 3647.761719 3035.566406 L 797.65625 3766.132812 Z M 43.4375 823.757812 " clip-rule="nonzero"/></clipPath><clipPath id="405275d245"><path d="M 621 2206 L 1639 2206 L 1639 3555 L 621 3555 Z M 621 2206 " clip-rule="nonzero"/></clipPath><clipPath id="e14103f976"><path d="M 43.4375 823.757812 L 2893.546875 93.191406 L 3647.761719 3035.566406 L 797.65625 3766.132812 Z M 43.4375 823.757812 " clip-rule="nonzero"/></clipPath><clipPath id="3d6d51f8d5"><path d="M 43.4375 823.757812 L 2893.546875 93.191406 L 3647.761719 3035.566406 L 797.65625 3766.132812 Z M 43.4375 823.757812 " clip-rule="nonzero"/></clipPath><clipPath id="89d78ac759"><path d="M 43.4375 823.757812 L 2893.546875 93.191406 L 3647.761719 3035.566406 L 797.65625 3766.132812 Z M 43.4375 823.757812 " clip-rule="nonzero"/></clipPath></defs><g clip-path="url(#a88958fe7f)"><g clip-path="url(#9918dc0247)"><g clip-path="url(#016ed8806a)"><g clip-path="url(#9509dbbe5c)"><path fill="#000000" d="M 2769.140625 194.28125 C 2821.3125 330.867188 2852.964844 439.351562 2871.980469 530.527344 C 2902.453125 674.390625 2900.050781 773.953125 2895.773438 873.203125 C 2883.863281 1212.5 2789.644531 1518.53125 2640.441406 1786.949219 C 2536.621094 1973.585938 2405.257812 2141.691406 2252.292969 2289.507812 C 1875.871094 2652.910156 1367.722656 2893.179688 811.171875 2956.621094 C 786.386719 2958.871094 767.972656 2980.964844 770.253906 3005.871094 C 772.539062 3030.777344 794.433594 3049.222656 819.457031 3046.90625 C 1407.808594 3006.597656 1959.171875 2782 2365.679688 2410.039062 C 2535.609375 2254.46875 2679.832031 2072.5625 2790.171875 1869.394531 C 2948.394531 1578.191406 3036.316406 1242.597656 3038.984375 876.230469 C 3038.953125 767.171875 3037.273438 657.691406 2996.933594 501.316406 C 2972.550781 406.1875 2933.917969 293.445312 2872.339844 152.148438 C 2860.683594 123.675781 2828.222656 109.960938 2799.695312 121.605469 C 2771.171875 133.246094 2757.484375 165.808594 2769.140625 194.28125 Z M 2769.140625 194.28125 " fill-opacity="1" fill-rule="evenodd"/></g></g></g></g><g clip-path="url(#405275d245)"><g clip-path="url(#e14103f976)"><g clip-path="url(#3d6d51f8d5)"><g clip-path="url(#89d78ac759)"><path fill="#000000" d="M 1171.109375 2233.089844 C 1120.089844 2307.886719 1006.683594 2466.109375 899.585938 2622.945312 C 762.972656 2822.550781 635.339844 3018.214844 635.339844 3018.214844 C 622.359375 3038.527344 618.480469 3063.375 624.71875 3086.703125 C 630.707031 3110.074219 646.503906 3129.726562 667.832031 3140.984375 C 667.832031 3140.984375 952.195312 3281.921875 1205.847656 3396.992188 C 1375.433594 3473.9375 1531.066406 3538.425781 1578.324219 3551.882812 C 1601.929688 3560.023438 1627.886719 3547.347656 1635.914062 3523.695312 C 1643.945312 3500.0625 1631.425781 3474.21875 1607.828125 3466.097656 L 829.074219 3033.453125 C 876.554688 2956.847656 952.910156 2832.972656 1028.554688 2705.335938 C 1125.890625 2541.394531 1221.578125 2371.007812 1265.832031 2291.796875 C 1281.929688 2265.660156 1273.882812 2231.265625 1247.699219 2215.070312 C 1221.757812 2198.816406 1187.210938 2206.957031 1171.109375 2233.089844 Z M 1171.109375 2233.089844 " fill-opacity="1" fill-rule="evenodd"/></g></g></g></g></svg>