<svg width="180" height="63" viewBox="0 0 180 63" fill="none" xmlns="http://www.w3.org/2000/svg">
<g clip-path="url(#clip0_346_601)">
<path d="M20.2861 39.05V60.745C20.2861 61.755 19.4661 62.575 18.4561 62.575H2.13363C1.12363 62.575 0.303631 61.755 0.303631 60.745V46.535C0.303631 41.4925 4.39863 37.3975 9.44113 37.3975H18.6311C19.5436 37.3975 20.2836 38.1375 20.2836 39.05H20.2861Z" fill="#6753A3"/>
<path d="M58.8388 27.4202C58.7338 33.6877 56.1388 39.3527 52.0188 43.4902C51.5338 43.9752 49.6988 45.6552 48.8463 46.2452C48.1563 46.7227 47.1113 46.8927 46.3813 46.4727L29.2738 34.1252C28.6063 33.7402 28.6063 32.7802 29.2738 32.3927L37.0888 27.8827C37.7563 27.4977 37.7563 26.5352 37.0888 26.1502L21.5063 17.1552C20.8388 16.7702 20.0063 17.2527 20.0063 18.0227V29.9852C20.0063 30.2777 19.9438 30.5552 19.8313 30.8052C19.8213 30.8277 19.8113 30.8502 19.7988 30.8727C19.7763 30.9177 19.7538 30.9602 19.7288 31.0002C19.5988 31.2227 19.4263 31.4177 19.2213 31.5727C19.1888 31.5977 19.1563 31.6202 19.1238 31.6427C19.0938 31.6652 19.0613 31.6852 19.0288 31.7027C19.0063 31.7177 18.9838 31.7302 18.9588 31.7427C18.8963 31.7777 18.8338 31.8077 18.7688 31.8352C18.7438 31.8452 18.7188 31.8552 18.6938 31.8627C18.6638 31.8752 18.6313 31.8852 18.6013 31.8952C18.5813 31.9002 18.5638 31.9077 18.5438 31.9127C18.5113 31.9202 18.4813 31.9302 18.4488 31.9352C18.4038 31.9452 18.3588 31.9552 18.3113 31.9627H18.3038C18.2638 31.9702 18.2213 31.9752 18.1788 31.9777C18.1238 31.9827 18.0638 31.9852 18.0063 31.9852H2.11377C1.00877 31.9852 0.11377 31.0902 0.11377 29.9852V5.72022C0.11377 4.61521 1.00877 3.72021 2.11377 3.72021H35.2213C37.8813 3.72021 40.4463 4.16021 42.8438 4.97272C52.2238 8.14772 59.0188 17.0052 58.8388 27.4202Z" fill="url(#paint0_linear_346_601)"/>
<path d="M42.8438 4.97272C20.0388 2.93021 19.9213 18.7502 19.9213 18.7502L19.9288 18.7602L20.0063 18.8727V29.9827C20.0063 30.2752 19.9438 30.5527 19.8313 30.8027C19.8213 30.8252 19.8113 30.8477 19.7988 30.8702C19.7788 30.9152 19.7538 30.9577 19.7288 30.9977C19.5988 31.2202 19.4263 31.4152 19.2213 31.5702C19.1888 31.5952 19.1563 31.6177 19.1238 31.6402C19.0938 31.6627 19.0613 31.6827 19.0288 31.7002C19.0063 31.7152 18.9838 31.7277 18.9588 31.7402C18.8963 31.7752 18.8338 31.8052 18.7688 31.8327C18.7438 31.8427 18.7188 31.8527 18.6938 31.8602C18.6638 31.8727 18.6313 31.8827 18.6013 31.8927C18.5813 31.8977 18.5638 31.9052 18.5438 31.9102C18.5113 31.9177 18.4813 31.9277 18.4488 31.9327C18.4038 31.9427 18.3588 31.9527 18.3113 31.9602H18.3038C18.2638 31.9677 18.2213 31.9727 18.1788 31.9752C18.1238 31.9802 18.0638 31.9827 18.0063 31.9827H2.11377C1.00877 31.9827 0.11377 31.0877 0.11377 29.9827V5.72022C0.11377 4.61521 1.00877 3.72021 2.11377 3.72021H35.2213C37.8813 3.72021 40.4463 4.16021 42.8438 4.97272Z" fill="url(#paint1_linear_346_601)"/>
<path d="M65.0271 44.3591L67.1437 39.6266C68.9194 41.0376 70.9249 41.7431 73.1604 41.7431C75.4751 41.7431 76.6324 40.9187 76.6324 39.2699C76.6324 38.3028 76.2837 37.5101 75.5861 36.8917C74.8885 36.2734 73.5329 35.5441 71.5195 34.7039C67.1278 32.8806 64.932 30.3281 64.932 27.0463C64.932 24.8425 65.7723 23.1303 67.4528 21.9095C69.1334 20.6729 71.2816 20.0545 73.8976 20.0545C76.5452 20.0545 79.0344 20.6491 81.3649 21.8381L79.6527 26.4517C78.3526 25.3419 76.5452 24.787 74.2305 24.787C72.1536 24.787 71.1152 25.6115 71.1152 27.2603C71.1152 27.9103 71.456 28.4969 72.1378 29.0201C72.8195 29.5433 74.2781 30.2488 76.5135 31.1367C78.749 32.0086 80.3582 33.0709 81.3412 34.3234C82.3241 35.5758 82.8156 37.0899 82.8156 38.8656C82.8156 41.2279 81.9357 43.0907 80.1759 44.4542C78.4319 45.8018 76.0538 46.4756 73.0415 46.4756C71.3451 46.4756 69.9816 46.3329 68.9511 46.0476C67.9364 45.778 66.6284 45.2152 65.0271 44.3591ZM85.9072 33.2056C85.9072 29.3213 87.0249 26.1584 89.2603 23.7169C91.5116 21.2753 94.4764 20.0545 98.1546 20.0545C102.023 20.0545 105.027 21.2278 107.168 23.5742C109.308 25.9206 110.378 29.1311 110.378 33.2056C110.378 37.2643 109.284 40.4907 107.096 42.8846C104.924 45.2786 101.944 46.4756 98.1546 46.4756C94.2861 46.4756 91.2738 45.2707 89.1177 42.8609C86.9773 40.4352 85.9072 37.2168 85.9072 33.2056ZM92.0903 33.2056C92.0903 38.818 94.1117 41.6242 98.1546 41.6242C100.01 41.6242 101.476 40.8949 102.554 39.4363C103.648 37.9778 104.195 35.9009 104.195 33.2056C104.195 27.6725 102.182 24.9059 98.1546 24.9059C96.2996 24.9059 94.8252 25.6352 93.7312 27.0938C92.6373 28.5524 92.0903 30.5897 92.0903 33.2056ZM116.181 11.0414L122.126 9.61453V38.2473C122.126 41.3864 123.062 43.2572 124.932 43.8597C124.013 45.6036 122.443 46.4756 120.224 46.4756C117.528 46.4756 116.181 44.6048 116.181 40.8632V11.0414ZM140.013 46.4733H137.883L126.43 20.6566H132.914L138.972 36.1324L145.479 20.6566H151.75L140.013 46.4733ZM177.685 35.1385H159.582C159.693 37.1578 160.387 38.7275 161.665 39.8475C162.943 40.9676 164.662 41.5276 166.823 41.5276C169.521 41.5276 171.572 40.8256 172.976 39.4216L175.271 43.9413C173.189 45.6293 170.081 46.4733 165.948 46.4733C162.083 46.4733 159.022 45.3453 156.766 43.0894C154.526 40.8177 153.406 37.6547 153.406 33.6004C153.406 29.6092 154.637 26.3752 157.098 23.8984C159.574 21.4217 162.54 20.1833 165.995 20.1833C169.671 20.1833 172.621 21.2797 174.845 23.4725C177.07 25.6653 178.182 28.4576 178.182 31.8493C178.182 32.575 178.016 33.6714 177.685 35.1385ZM159.795 30.6898H172.242C171.832 26.9826 169.781 25.1289 166.09 25.1289C162.714 25.1289 160.616 26.9826 159.795 30.6898Z" fill="#333537"/>
<path d="M129.688 58.9326L127.116 54.9536C126.857 54.9493 126.496 54.9339 126.031 54.9076V58.9326H124.255V49.2976C124.352 49.2976 124.722 49.2822 125.367 49.2515C126.011 49.2164 126.531 49.1989 126.925 49.1989C129.372 49.1989 130.595 50.146 130.595 52.0401C130.595 52.6101 130.426 53.1297 130.089 53.5988C129.751 54.068 129.326 54.399 128.813 54.5919L131.661 58.9326H129.688ZM126.031 50.7839V53.4607C126.347 53.487 126.588 53.5002 126.754 53.5002C127.469 53.5002 127.991 53.3993 128.32 53.1976C128.653 52.9959 128.819 52.6035 128.819 52.0204C128.819 51.5468 128.642 51.2158 128.287 51.0273C127.932 50.8387 127.372 50.7445 126.61 50.7445C126.425 50.7445 126.233 50.7576 126.031 50.7839ZM138.678 55.9139H133.647C133.677 56.4751 133.87 56.9113 134.226 57.2226C134.581 57.5339 135.059 57.6896 135.659 57.6896C136.409 57.6896 136.979 57.4945 137.369 57.1043L138.007 58.3604C137.428 58.8296 136.565 59.0642 135.416 59.0642C134.342 59.0642 133.491 58.7507 132.864 58.1237C132.242 57.4923 131.93 56.6132 131.93 55.4864C131.93 54.3771 132.272 53.4782 132.956 52.7899C133.645 52.1015 134.469 51.7573 135.429 51.7573C136.451 51.7573 137.271 52.062 137.889 52.6715C138.507 53.2809 138.816 54.057 138.816 54.9997C138.816 55.2014 138.77 55.5061 138.678 55.9139ZM133.706 54.6774H137.165C137.051 53.647 136.481 53.1319 135.455 53.1319C134.517 53.1319 133.934 53.647 133.706 54.6774ZM143.058 59.0642H142.466L139.283 51.8888H141.085L142.769 56.1901L144.577 51.8888H146.32L143.058 59.0642ZM148.951 49.1594C149.214 49.1594 149.438 49.2537 149.622 49.4423C149.81 49.6264 149.905 49.85 149.905 50.1131C149.905 50.3762 149.81 50.602 149.622 50.7905C149.438 50.9747 149.214 51.0667 148.951 51.0667C148.688 51.0667 148.462 50.9747 148.274 50.7905C148.09 50.602 147.997 50.3762 147.997 50.1131C147.997 49.85 148.09 49.6264 148.274 49.4423C148.462 49.2537 148.688 49.1594 148.951 49.1594ZM148.103 58.9326V53.2371H147.202V51.8888H149.767V58.9326H148.103ZM157.974 55.9139H152.943C152.974 56.4751 153.167 56.9113 153.522 57.2226C153.877 57.5339 154.355 57.6896 154.956 57.6896C155.705 57.6896 156.275 57.4945 156.666 57.1043L157.304 58.3604C156.725 58.8296 155.861 59.0642 154.712 59.0642C153.638 59.0642 152.788 58.7507 152.161 58.1237C151.538 57.4923 151.227 56.6132 151.227 55.4864C151.227 54.3771 151.569 53.4782 152.253 52.7899C152.941 52.1015 153.765 51.7573 154.726 51.7573C155.747 51.7573 156.567 52.062 157.185 52.6715C157.803 53.2809 158.113 54.057 158.113 54.9997C158.113 55.2014 158.067 55.5061 157.974 55.9139ZM153.002 54.6774H156.462C156.348 53.647 155.778 53.1319 154.752 53.1319C153.814 53.1319 153.23 53.647 153.002 54.6774ZM166.353 59.0642H165.755L163.821 54.7366L161.894 59.0642H161.289L158.632 51.8888H160.362L161.776 56.0914L163.499 51.8888H164.091L165.873 56.1177L167.399 51.8888H169.017L166.353 59.0642ZM169.563 58.4788L170.148 57.17C170.639 57.5603 171.194 57.7554 171.812 57.7554C172.452 57.7554 172.772 57.5274 172.772 57.0714C172.772 56.8039 172.676 56.5847 172.483 56.4137C172.29 56.2427 171.915 56.041 171.358 55.8086C170.144 55.3044 169.537 54.5985 169.537 53.6909C169.537 53.0814 169.769 52.6079 170.234 52.2703C170.698 51.9283 171.293 51.7573 172.016 51.7573C172.748 51.7573 173.437 51.9217 174.081 52.2506L173.608 53.5265C173.248 53.2195 172.748 53.0661 172.108 53.0661C171.534 53.0661 171.247 53.2941 171.247 53.7501C171.247 53.9298 171.341 54.0921 171.529 54.2368C171.718 54.3815 172.121 54.5766 172.739 54.8221C173.358 55.0632 173.803 55.357 174.075 55.7034C174.346 56.0498 174.482 56.4685 174.482 56.9596C174.482 57.6129 174.239 58.1281 173.752 58.5051C173.27 58.8778 172.612 59.0642 171.779 59.0642C171.31 59.0642 170.933 59.0247 170.648 58.9458C170.367 58.8712 170.006 58.7156 169.563 58.4788Z" fill="#6753A3"/>
<path d="M28.8086 54.6423L28.7886 38.3998C28.7886 37.7323 29.5511 37.3498 30.0861 37.7498L58.3011 60.1098C59.3136 60.9823 58.6961 62.6423 57.3611 62.6423H38.7936L29.4161 55.8298C29.0361 55.5548 28.8111 55.1123 28.8111 54.6423H28.8086Z" fill="url(#paint2_linear_346_601)"/>
</g>
<defs>
<linearGradient id="paint0_linear_346_601" x1="19.5763" y1="5.94021" x2="41.9838" y2="51.4802" gradientUnits="userSpaceOnUse">
<stop stop-color="#3D368C"/>
<stop offset="1" stop-color="#6753A3"/>
</linearGradient>
<linearGradient id="paint1_linear_346_601" x1="29.0088" y1="-4.30729" x2="-1.19874" y2="32.9977" gradientUnits="userSpaceOnUse">
<stop stop-color="#6753A3"/>
<stop offset="0.29" stop-color="#5E4D9E"/>
<stop offset="0.75" stop-color="#483D92"/>
<stop offset="0.93" stop-color="#3D368C"/>
</linearGradient>
<linearGradient id="paint2_linear_346_601" x1="57.6253" y1="50.5615" x2="42.0012" y2="50.261" gradientUnits="userSpaceOnUse">
<stop offset="0.07" stop-color="#3D368C"/>
<stop offset="0.54" stop-color="#544698"/>
<stop offset="1" stop-color="#6753A3"/>
</linearGradient>
<clipPath id="clip0_346_601">
<rect width="179.772" height="62.6425" fill="white" transform="translate(0.11377)"/>
</clipPath>
</defs>
</svg>
