<svg width="205" height="66" viewBox="0 0 205 66" fill="none" xmlns="http://www.w3.org/2000/svg">
<g clip-path="url(#clip0_4327_191)">
<mask id="mask0_4327_191" style="mask-type:luminance" maskUnits="userSpaceOnUse" x="42" y="27" width="29" height="39">
<path d="M55.5901 27.121C52.3281 27.286 49.1172 28.5003 46.6251 30.7755C43.9415 33.2275 42.5977 36.4379 42.5977 39.6522V64.4317C42.5977 65.2962 43.3632 65.9957 44.3115 65.9957H68.3783C69.3267 65.9957 70.0922 65.2962 70.0922 64.4317V27.121H55.5901Z" fill="white"/>
</mask>
<g mask="url(#mask0_4327_191)">
<path d="M70.0942 27.1247H42.5996V66.0033H70.0942V27.1247Z" fill="url(#paint0_linear_4327_191)"/>
</g>
<mask id="mask1_4327_191" style="mask-type:luminance" maskUnits="userSpaceOnUse" x="0" y="2" width="43" height="26">
<path d="M1.70113 2C0.761257 2 0 2.69552 0 3.55216V25.5456C0 26.4023 0.761257 27.0978 1.70113 27.0978H42.5751V13.8553C42.3965 10.8768 41.0611 7.94928 38.5732 5.6741C35.9322 3.26137 32.4789 2.03537 29.0171 2H1.70113Z" fill="white"/>
</mask>
<g mask="url(#mask1_4327_191)">
<path d="M42.5751 2H0V27.1017H42.5751V2Z" fill="url(#paint1_linear_4327_191)"/>
</g>
<mask id="mask2_4327_191" style="mask-type:luminance" maskUnits="userSpaceOnUse" x="0" y="38" width="28" height="28">
<path d="M12.9882 38.9496C9.72624 39.0635 6.5196 39.9123 4.02744 41.492C1.38642 43.1699 0.0425284 45.3625 0 47.563V64.9158C0 65.5131 0.761258 65.9964 1.70113 65.9964H25.7892C26.7291 65.9964 27.4903 65.5131 27.4903 64.9158V38.9496H12.9882Z" fill="white"/>
</mask>
<g mask="url(#mask2_4327_191)">
<path d="M27.4946 38.9496H0V66.0003H27.4946V38.9496Z" fill="url(#paint2_linear_4327_191)"/>
</g>
<mask id="mask3_4327_191" style="mask-type:luminance" maskUnits="userSpaceOnUse" x="29" y="2" width="42" height="38">
<path d="M29.0176 2C32.4794 2.03537 35.9327 3.26137 38.5737 5.6741C41.0616 7.94928 42.397 10.8768 42.5756 13.8553C42.6054 14.319 42.6054 14.7788 42.5756 15.2425V27.1017H42.5969V39.6565C42.5969 36.4422 43.9365 33.2318 46.6243 30.7798C49.1165 28.5046 52.3231 27.2864 55.5893 27.1253C56.0954 27.0978 56.6015 27.0978 57.1076 27.1253H70.0957V10.0398C70.0957 5.59943 66.1533 2 61.2881 2H29.0176Z" fill="white"/>
</mask>
<g mask="url(#mask3_4327_191)">
<path d="M70.0957 2H29.0176V39.6565H70.0957V2Z" fill="url(#paint3_linear_4327_191)"/>
</g>
</g>
<path d="M144.679 62.4092L145.379 60.7097C146.128 61.2349 146.864 61.4975 147.589 61.4975C148.703 61.4975 149.259 61.1084 149.259 60.3304C149.259 59.9657 149.128 59.6181 148.865 59.2874C148.603 58.9567 148.061 58.5872 147.239 58.1787C146.422 57.7654 145.87 57.4274 145.583 57.1649C145.301 56.8974 145.082 56.5813 144.927 56.2167C144.776 55.852 144.701 55.4484 144.701 55.0059C144.701 54.1792 145.002 53.4936 145.605 52.949C146.213 52.4044 146.991 52.1321 147.939 52.1321C149.174 52.1321 150.081 52.363 150.66 52.825L150.084 54.4588C149.417 53.9823 148.715 53.744 147.976 53.744C147.538 53.744 147.198 53.8607 146.954 54.0941C146.716 54.3227 146.597 54.6217 146.597 54.9913C146.597 55.604 147.275 56.241 148.632 56.9023C149.347 57.2524 149.862 57.5758 150.178 57.8724C150.494 58.1641 150.735 58.5069 150.9 58.9008C151.066 59.2898 151.148 59.725 151.148 60.2064C151.148 61.072 150.806 61.7843 150.12 62.3435C149.439 62.9027 148.525 63.1823 147.377 63.1823C146.381 63.1823 145.481 62.9246 144.679 62.4092ZM159.697 59.6521H154.117C154.151 60.2745 154.365 60.7583 154.759 61.1036C155.153 61.4488 155.683 61.6214 156.349 61.6214C157.181 61.6214 157.813 61.4051 158.245 60.9723L158.953 62.3654C158.311 62.8857 157.353 63.1459 156.079 63.1459C154.888 63.1459 153.944 62.7982 153.249 62.1028C152.559 61.4026 152.213 60.4277 152.213 59.178C152.213 57.9477 152.593 56.9509 153.351 56.1875C154.115 55.424 155.029 55.0423 156.094 55.0423C157.227 55.0423 158.136 55.3803 158.822 56.0562C159.507 56.7321 159.85 57.5928 159.85 58.6382C159.85 58.8619 159.799 59.1999 159.697 59.6521ZM154.183 58.2808H158.019C157.893 57.1381 157.261 56.5668 156.123 56.5668C155.082 56.5668 154.436 57.1381 154.183 58.2808ZM165.831 56.8877C165.505 56.6737 165.148 56.5668 164.759 56.5668C164.336 56.5668 163.959 56.7588 163.628 57.143C163.303 57.5271 163.14 57.9964 163.14 58.5507V63H161.316V55.1882H163.14V55.903C163.65 55.3292 164.329 55.0423 165.175 55.0423C165.797 55.0423 166.274 55.1372 166.604 55.3268L165.831 56.8877ZM170.944 63.1459H170.288L166.757 55.1882H168.756L170.623 59.9584L172.629 55.1882H174.562L170.944 63.1459ZM177.48 52.1612C177.771 52.1612 178.019 52.2658 178.223 52.4749C178.433 52.6791 178.537 52.9271 178.537 53.2188C178.537 53.5106 178.433 53.761 178.223 53.9701C178.019 54.1744 177.771 54.2765 177.48 54.2765C177.188 54.2765 176.937 54.1744 176.728 53.9701C176.524 53.761 176.422 53.5106 176.422 53.2188C176.422 52.9271 176.524 52.6791 176.728 52.4749C176.937 52.2658 177.188 52.1612 177.48 52.1612ZM176.539 63V56.6835H175.539V55.1882H178.384V63H176.539ZM186.641 55.8082L185.86 57.1722C185.432 56.7686 184.859 56.5668 184.139 56.5668C183.448 56.5668 182.901 56.7977 182.498 57.2597C182.099 57.7168 181.9 58.3513 181.9 59.1634C181.9 60.8021 182.68 61.6214 184.241 61.6214C184.917 61.6214 185.513 61.3978 186.028 60.9504L186.699 62.3873C186.169 62.718 185.705 62.9271 185.306 63.0146C184.912 63.1021 184.445 63.1459 183.905 63.1459C182.7 63.1459 181.746 62.7958 181.046 62.0956C180.351 61.3905 180.003 60.4131 180.003 59.1634C180.003 57.9332 180.385 56.9388 181.148 56.1802C181.912 55.4216 182.952 55.0423 184.27 55.0423C185.179 55.0423 185.97 55.2976 186.641 55.8082ZM195.131 59.6521H189.551C189.585 60.2745 189.799 60.7583 190.193 61.1036C190.587 61.4488 191.117 61.6214 191.783 61.6214C192.614 61.6214 193.247 61.4051 193.679 60.9723L194.387 62.3654C193.745 62.8857 192.787 63.1459 191.513 63.1459C190.322 63.1459 189.378 62.7982 188.683 62.1028C187.992 61.4026 187.647 60.4277 187.647 59.178C187.647 57.9477 188.027 56.9509 188.785 56.1875C189.549 55.424 190.463 55.0423 191.528 55.0423C192.661 55.0423 193.57 55.3803 194.256 56.0562C194.941 56.7321 195.284 57.5928 195.284 58.6382C195.284 58.8619 195.233 59.1999 195.131 59.6521ZM189.617 58.2808H193.453C193.327 57.1381 192.695 56.5668 191.557 56.5668C190.516 56.5668 189.869 57.1381 189.617 58.2808ZM196.269 62.4967L196.918 61.0452C197.462 61.478 198.078 61.6944 198.763 61.6944C199.473 61.6944 199.828 61.4415 199.828 60.9358C199.828 60.6392 199.721 60.3961 199.507 60.2064C199.293 60.0168 198.877 59.7931 198.26 59.5354C196.913 58.9762 196.239 58.1933 196.239 57.1867C196.239 56.5108 196.497 55.9857 197.013 55.6113C197.528 55.232 198.187 55.0423 198.989 55.0423C199.801 55.0423 200.565 55.2247 201.28 55.5894L200.754 57.0044C200.356 56.664 199.801 56.4938 199.091 56.4938C198.454 56.4938 198.136 56.7467 198.136 57.2524C198.136 57.4518 198.24 57.6317 198.45 57.7921C198.659 57.9526 199.106 58.169 199.792 58.4413C200.477 58.7087 200.971 59.0345 201.272 59.4187C201.574 59.8028 201.725 60.2672 201.725 60.8118C201.725 61.5364 201.455 62.1077 200.915 62.5259C200.38 62.9392 199.651 63.1459 198.727 63.1459C198.206 63.1459 197.788 63.1021 197.472 63.0146C197.161 62.9319 196.76 62.7593 196.269 62.4967Z" fill="#0B70D6"/>
<path d="M75.9152 49.18L78.2628 43.931C80.2323 45.496 82.4567 46.2785 84.9362 46.2785C87.5035 46.2785 88.7872 45.3641 88.7872 43.5353C88.7872 42.4626 88.4004 41.5834 87.6266 40.8976C86.8529 40.2118 85.3494 39.4029 83.1162 38.4709C78.2452 36.4487 75.8097 33.6175 75.8097 29.9775C75.8097 27.5332 76.7417 25.6341 78.6057 24.2801C80.4697 22.9085 82.8524 22.2227 85.7539 22.2227C88.6905 22.2227 91.4513 22.8821 94.0363 24.2009L92.1371 29.3181C90.6952 28.0872 88.6905 27.4717 86.1231 27.4717C83.8195 27.4717 82.6678 28.3861 82.6678 30.2149C82.6678 30.9359 83.0458 31.5865 83.802 32.1668C84.5581 32.7471 86.1759 33.5296 88.6553 34.5144C91.1348 35.4815 92.9196 36.6597 94.0099 38.0489C95.1001 39.4381 95.6453 41.1174 95.6453 43.0869C95.6453 45.707 94.6693 47.7732 92.7174 49.2855C90.7831 50.7802 88.1454 51.5275 84.8043 51.5275C82.9227 51.5275 81.4104 51.3693 80.2674 51.0528C79.142 50.7538 77.6913 50.1296 75.9152 49.18ZM99.0743 36.8092C99.0743 32.5009 100.314 28.9928 102.793 26.2847C105.29 23.5767 108.579 22.2227 112.658 22.2227C116.949 22.2227 120.281 23.5239 122.655 26.1265C125.029 28.729 126.216 32.2899 126.216 36.8092C126.216 41.3108 125.003 44.8893 122.576 47.5446C120.167 50.1999 116.861 51.5275 112.658 51.5275C108.368 51.5275 105.027 50.1911 102.635 47.5182C100.261 44.8278 99.0743 41.2581 99.0743 36.8092ZM105.932 36.8092C105.932 43.0341 108.174 46.1466 112.658 46.1466C114.716 46.1466 116.342 45.3377 117.538 43.7199C118.752 42.1021 119.358 39.7986 119.358 36.8092C119.358 30.6721 117.125 27.6036 112.658 27.6036C110.601 27.6036 108.966 28.4125 107.752 30.0303C106.539 31.648 105.932 33.9077 105.932 36.8092ZM132.652 12.2258L139.246 10.6431V42.4011C139.246 45.8829 140.284 47.9578 142.359 48.6261C141.339 50.5604 139.598 51.5275 137.136 51.5275C134.147 51.5275 132.652 49.4525 132.652 45.3026V12.2258ZM159.161 51.5275H156.787L144.021 22.7502H151.248L158.001 40.0008L165.254 22.7502H172.244L159.161 51.5275ZM201.153 38.8929H180.975C181.098 41.1438 181.872 42.8935 183.296 44.142C184.72 45.3905 186.637 46.0147 189.046 46.0147C192.053 46.0147 194.339 45.2322 195.904 43.6672L198.463 48.7052C196.142 50.5868 192.678 51.5275 188.07 51.5275C183.762 51.5275 180.351 50.2702 177.836 47.7556C175.339 45.2234 174.091 41.6977 174.091 37.1784C174.091 32.7295 175.462 29.1246 178.205 26.3639C180.966 23.6031 184.272 22.2227 188.123 22.2227C192.22 22.2227 195.509 23.4448 197.988 25.8891C200.468 28.3333 201.707 31.4458 201.707 35.2265C201.707 36.0354 201.523 37.2576 201.153 38.8929ZM181.212 33.9341H195.087C194.629 29.8017 192.343 27.7355 188.229 27.7355C184.466 27.7355 182.127 29.8017 181.212 33.9341Z" fill="#1D1F2C"/>
<defs>
<linearGradient id="paint0_linear_4327_191" x1="56.3652" y1="33.1222" x2="56.3652" y2="72.6301" gradientUnits="userSpaceOnUse">
<stop stop-color="#003C84"/>
<stop offset="1" stop-color="#005BB5"/>
</linearGradient>
<linearGradient id="paint1_linear_4327_191" x1="-0.00918829" y1="14.5346" x2="42.5678" y2="14.5346" gradientUnits="userSpaceOnUse">
<stop stop-color="#15B3FF"/>
<stop offset="1" stop-color="#005BB5"/>
</linearGradient>
<linearGradient id="paint2_linear_4327_191" x1="-0.00312911" y1="52.4718" x2="27.4898" y2="52.4718" gradientUnits="userSpaceOnUse">
<stop stop-color="#007BE0"/>
<stop offset="1" stop-color="#005BB5"/>
</linearGradient>
<linearGradient id="paint3_linear_4327_191" x1="29.0054" y1="20.81" x2="70.0843" y2="20.81" gradientUnits="userSpaceOnUse">
<stop stop-color="#007BE0"/>
<stop offset="1" stop-color="#005BB5"/>
</linearGradient>
<clipPath id="clip0_4327_191">
<rect width="70.0952" height="64" fill="white" transform="translate(0 2)"/>
</clipPath>
</defs>
</svg>
