<svg width="418" height="400" viewBox="0 0 418 400" fill="none" xmlns="http://www.w3.org/2000/svg">
<g clip-path="url(#clip0_4327_1114)">
<rect width="418" height="400" rx="24" fill="#E7FFE4"/>
<g opacity="0.2" clip-path="url(#clip1_4327_1114)">
<path d="M115.64 221.046C61.0244 221.266 56 261.52 56 261.52V347.618C56 353.411 57.6393 355.986 65.9556 355.986H169.629C176.253 355.986 177.906 352.603 177.906 348.768V221.06H115.64V221.046Z" fill="#66AE43"/>
<path d="M245.129 81.9837L237.905 87.2432C212.65 105.638 185.382 87.2432 185.369 87.2432L124.383 42.7974C124.29 42.7289 124.196 42.6741 124.103 42.6056C123.703 42.318 123.303 42.0441 122.89 41.7702C122.717 41.6606 122.544 41.5373 122.37 41.4277C121.944 41.1538 121.517 40.8936 121.091 40.6333C120.918 40.5237 120.731 40.4279 120.558 40.3183C120.131 40.0717 119.705 39.8389 119.278 39.6198C119.079 39.5102 118.892 39.4143 118.692 39.3047C118.279 39.0993 117.866 38.9075 117.453 38.7021C117.226 38.5925 117.013 38.4966 116.786 38.3871C116.4 38.209 116.013 38.0583 115.613 37.894C115.36 37.7844 115.094 37.6748 114.84 37.5789C114.481 37.442 114.121 37.3187 113.761 37.1817C113.468 37.0722 113.161 36.9626 112.868 36.8667C112.548 36.7572 112.215 36.6613 111.882 36.5654C111.535 36.4558 111.189 36.3599 110.856 36.2641C110.562 36.1819 110.269 36.1134 109.976 36.0449C109.589 35.949 109.203 35.8532 108.803 35.771C108.55 35.7162 108.283 35.6614 108.03 35.6203C107.604 35.5381 107.164 35.456 106.737 35.3875C106.511 35.3464 106.271 35.319 106.031 35.2779C105.565 35.2094 105.098 35.1546 104.645 35.0998C104.432 35.0724 104.219 35.0587 103.992 35.0314C103.512 34.9903 103.019 34.9492 102.539 34.9218C102.326 34.9081 102.113 34.8944 101.9 34.8944C101.42 34.8807 100.94 34.867 100.46 34.8533C100.34 34.8533 100.234 34.8396 100.114 34.8396C99.9804 34.8396 99.8605 34.8533 99.7272 34.8533C99.3007 34.8533 98.8609 34.867 98.4345 34.8807C98.1279 34.8944 97.8214 34.9081 97.5149 34.9218C97.1684 34.9492 96.8352 34.9766 96.502 35.004C96.1155 35.0451 95.729 35.0725 95.3425 35.1136C95.1026 35.1409 94.876 35.1683 94.6361 35.2094C94.1564 35.2779 93.6766 35.3464 93.2101 35.4286C93.0768 35.456 92.9436 35.4834 92.8103 35.4971C92.2506 35.5929 91.6908 35.7025 91.1444 35.8258C91.0911 35.8395 91.0377 35.8532 90.9978 35.8669C89.052 36.3051 87.1595 36.8941 85.3203 37.5927C85.2937 37.6063 85.2537 37.62 85.227 37.6337C84.6406 37.8666 84.0676 38.0994 83.4945 38.346C83.3479 38.4145 83.2146 38.4829 83.068 38.5377C82.6149 38.7432 82.1617 38.9623 81.7086 39.1815C81.4154 39.3321 81.1355 39.4828 80.8556 39.6334C80.5624 39.7841 80.2692 39.9485 79.976 40.0992C79.5496 40.332 79.1364 40.5922 78.7233 40.8388C78.5767 40.9209 78.4301 41.0168 78.2835 41.099C77.7637 41.4277 77.2573 41.7565 76.7508 42.1126C76.7108 42.14 76.6708 42.1674 76.6308 42.1947C75.538 42.9618 74.4585 43.7835 73.4323 44.6601C73.4323 44.6601 73.419 44.6602 73.419 44.6738C72.9392 45.0847 72.4594 45.5093 71.9929 45.9339C71.953 45.975 71.8996 46.0161 71.8597 46.0572C71.4465 46.4407 71.0467 46.8379 70.6469 47.2488C70.5402 47.3584 70.4336 47.4543 70.3403 47.5639C70.0071 47.9063 69.6873 48.2624 69.3541 48.6185C69.1942 48.7966 69.0209 48.9883 68.861 49.1664C68.6078 49.454 68.3546 49.7553 68.1013 50.0704C67.8748 50.3443 67.6615 50.6182 67.435 50.8921C67.2484 51.1387 67.0618 51.3715 66.8752 51.6181C66.6087 51.9742 66.3421 52.3303 66.0889 52.7001C66.009 52.8097 65.9423 52.9056 65.8623 53.0151C65.7957 53.111 65.7424 53.2069 65.6757 53.3028C65.3959 53.7137 65.1293 54.1246 64.8628 54.5492C64.7428 54.7272 64.6362 54.919 64.5163 55.097C64.263 55.5216 64.0099 55.9599 63.7566 56.3845C63.65 56.5763 63.5434 56.768 63.4368 56.9598C63.2102 57.3844 62.9836 57.809 62.7704 58.2473C62.6638 58.4664 62.5572 58.6719 62.4505 58.8773C62.2506 59.2882 62.064 59.6991 61.8908 60.11C61.7842 60.3566 61.6775 60.6031 61.5709 60.836C61.411 61.2195 61.2644 61.603 61.1045 61.9865C60.9978 62.2741 60.8779 62.548 60.7846 62.8357C60.6647 63.1781 60.5447 63.5342 60.4248 63.8903C60.3182 64.2191 60.1982 64.5478 60.1049 64.8765C60.0116 65.1915 59.9183 65.5065 59.825 65.8216C59.7184 66.1914 59.6118 66.5612 59.5185 66.9447C59.4519 67.2186 59.3852 67.5063 59.3186 67.7939C59.2253 68.2185 59.1187 68.6294 59.0387 69.054C58.9854 69.3005 58.9454 69.5471 58.8921 69.7936C58.8121 70.2593 58.7189 70.7113 58.6522 71.177C58.6122 71.3961 58.5856 71.6153 58.5589 71.8344C58.4923 72.3275 58.4257 72.8206 58.3724 73.3274C58.3457 73.5328 58.3324 73.7383 58.319 73.9437C58.2791 74.4642 58.2391 74.971 58.1991 75.4914C58.1858 75.6969 58.1858 75.9023 58.1725 76.1078C58.1458 76.6146 58.1325 77.135 58.1325 77.6418C58.1325 77.7514 58.1191 77.861 58.1191 77.9705V94.7764V134.839V151.344C58.1191 161.178 63.6766 162.342 68.0214 162.342H245.129C245.129 162.342 244.849 161.055 244.849 123.088C244.849 85.1202 245.129 81.9837 245.129 81.9837Z" fill="url(#paint0_linear_4327_1114)"/>
<path d="M363.543 66.1229C363.529 66.0955 363.529 66.0681 363.516 66.0407C362.556 62.6028 361.184 59.343 359.465 56.3023C359.425 56.2339 359.385 56.1654 359.345 56.0969C358.785 55.1107 358.172 54.152 357.532 53.2206C357.492 53.1658 357.465 53.0973 357.425 53.0425C357.359 52.933 357.279 52.8371 357.199 52.7412C356.946 52.3714 356.679 52.0153 356.413 51.6592C356.226 51.4126 356.039 51.1661 355.853 50.9332C355.64 50.6593 355.413 50.3854 355.186 50.1114C354.933 49.8101 354.68 49.5088 354.427 49.2075C354.267 49.0294 354.107 48.8377 353.934 48.6596C353.614 48.3035 353.281 47.9474 352.947 47.5913C352.854 47.4954 352.748 47.3858 352.654 47.2899C352.254 46.879 351.841 46.4818 351.428 46.0983C351.388 46.0572 351.348 46.0298 351.308 45.9887C350.842 45.5504 350.362 45.1258 349.869 44.7149C348.829 43.8383 347.763 43.0165 346.657 42.2495C346.617 42.2221 346.577 42.1947 346.537 42.1673C346.031 41.8249 345.511 41.4825 344.991 41.1538C344.844 41.0716 344.711 40.9894 344.565 40.8935C344.151 40.6333 343.725 40.3868 343.298 40.1402C343.005 39.9759 342.699 39.8252 342.405 39.6608C342.126 39.5102 341.846 39.3595 341.566 39.2226C341.113 38.9897 340.646 38.7843 340.193 38.5651C340.06 38.5103 339.927 38.4418 339.793 38.3734C339.22 38.1131 338.634 37.8803 338.034 37.6474C338.007 37.6337 337.994 37.6337 337.967 37.62C336.128 36.9078 334.209 36.3189 332.263 35.8806C332.223 35.8669 332.197 35.8669 332.157 35.8532C331.597 35.7299 331.024 35.6203 330.451 35.5107C330.331 35.4834 330.211 35.4697 330.091 35.4423C329.598 35.3601 329.118 35.2916 328.625 35.2231C328.412 35.1957 328.185 35.1683 327.972 35.1409C327.572 35.0998 327.172 35.0588 326.759 35.0177C326.439 34.9903 326.106 34.9629 325.786 34.9355C325.466 34.9218 325.147 34.8944 324.827 34.8807C324.414 34.867 324 34.8533 323.587 34.8533C323.454 34.8533 323.321 34.8396 323.174 34.8396C323.054 34.8396 322.934 34.8533 322.801 34.8533C322.334 34.8533 321.868 34.867 321.415 34.8944C321.188 34.9081 320.948 34.9081 320.722 34.9218C320.255 34.9492 319.789 34.9903 319.309 35.0314C319.083 35.0587 318.843 35.0724 318.616 35.0998C318.163 35.1546 317.723 35.2094 317.27 35.2779C317.017 35.319 316.764 35.3464 316.524 35.3875C316.111 35.456 315.697 35.5381 315.284 35.6203C315.004 35.6751 314.738 35.7299 314.458 35.7847C314.085 35.8669 313.712 35.9627 313.338 36.0449C313.032 36.1271 312.725 36.1956 312.419 36.2778C312.086 36.3736 311.753 36.4695 311.433 36.5654C311.086 36.6613 310.753 36.7708 310.406 36.8804C310.113 36.9763 309.833 37.0722 309.54 37.1817C309.167 37.3187 308.794 37.442 308.421 37.5927C308.167 37.6885 307.928 37.7981 307.674 37.894C307.275 38.0583 306.875 38.2227 306.475 38.4008C306.262 38.4966 306.048 38.5925 305.835 38.7021C305.409 38.8938 304.982 39.0993 304.569 39.3184C304.382 39.4143 304.196 39.5102 304.009 39.6198C303.57 39.8526 303.143 40.0855 302.717 40.332C302.543 40.4279 302.37 40.5374 302.197 40.6333C301.757 40.8936 301.33 41.1538 300.904 41.4277C300.731 41.5373 300.558 41.6469 300.398 41.7702C299.984 42.0441 299.571 42.3317 299.171 42.6193C299.078 42.6878 298.985 42.7426 298.892 42.8111L245.116 81.9974C245.116 81.9974 230.082 96.2009 214.303 95.4202C245.116 94.5025 244.836 127.785 244.836 127.785V162.315V162.383V237.291L291.522 208.596C299.211 217.663 310.54 223.402 323.161 223.402C346.35 223.402 365.142 204.09 365.142 180.258V163.342L366.728 162.37V88.4622C366.755 80.2031 365.675 72.6836 363.543 66.1229Z" fill="url(#paint1_linear_4327_1114)"/>
<path d="M304.489 162.383C249.874 162.712 244.849 220.457 244.849 220.457V343.988C244.849 352.302 246.488 356 254.805 356H277.861H338.514H358.465C365.089 356 366.741 351.138 366.741 345.645V162.383H304.489Z" fill="url(#paint2_linear_4327_1114)"/>
</g>
</g>
<defs>
<linearGradient id="paint0_linear_4327_1114" x1="58.1145" y1="98.6183" x2="245.13" y2="98.6183" gradientUnits="userSpaceOnUse">
<stop stop-color="#95C351"/>
<stop offset="1" stop-color="#2B9B38"/>
</linearGradient>
<linearGradient id="paint1_linear_4327_1114" x1="214.324" y1="136.074" x2="366.75" y2="136.074" gradientUnits="userSpaceOnUse">
<stop stop-color="#159739"/>
<stop offset="1" stop-color="#008139"/>
</linearGradient>
<linearGradient id="paint2_linear_4327_1114" x1="305.801" y1="162.38" x2="305.801" y2="355.983" gradientUnits="userSpaceOnUse">
<stop stop-color="#00642C"/>
<stop offset="0.9988" stop-color="#54AF32"/>
</linearGradient>
<clipPath id="clip0_4327_1114">
<rect width="418" height="400" rx="24" fill="white"/>
</clipPath>
<clipPath id="clip1_4327_1114">
<rect width="943" height="333" fill="white" transform="translate(56 23)"/>
</clipPath>
</defs>
</svg>
